<?xml version="1.0" encoding="UTF-8"?>
<svg width="51px" height="51px" viewBox="0 0 51 51" version="1.1" xmlns="http://www.w3.org/2000/svg" xmlns:xlink="http://www.w3.org/1999/xlink">
    <!-- Generator: Sketch 43.1 (39012) - http://www.bohemiancoding.com/sketch -->
    <title>1495339481_simple_business_share</title>
    <desc>Created with Sketch.</desc>
    <defs></defs>
    <g id="Page-1" stroke="none" stroke-width="1" fill="none" fill-rule="evenodd">
        <g id="Desktop-HD" transform="translate(-393.000000, -340.000000)" fill-rule="nonzero" fill="#FFFFFF">
            <g id="1495339481_simple_business_share" transform="translate(393.000000, 340.000000)">
                <path d="M47.0753906,0.0298828125 L30.6697266,0.0298828125 C29.2951172,0.0298828125 28.1794922,1.14550781 28.1794922,2.52011719 C28.1794922,3.89472656 29.2951172,5.01035156 30.6697266,5.01035156 L42.4535156,5.01035156 L19.6230469,27.571875 C18.646875,28.5380859 18.6369141,30.1119141 19.603125,31.0980469 C20.0912109,31.5960937 20.7287109,31.8351562 21.3761719,31.8351562 C22.0037109,31.8351562 22.6412109,31.5960937 23.1292969,31.1179687 L45.9896484,8.5265625 L45.9896484,20.3302734 C45.9896484,21.7048828 47.1052734,22.8205078 48.4798828,22.8205078 C49.8544922,22.8205078 50.9701172,21.7048828 50.9701172,20.3302734 L50.9701172,3.93457031 C50.9701172,1.74316406 49.2568359,0.0298828125 47.0753906,0.0298828125 Z" id="Shape"></path>
                <path d="M45.4916016,27.0837891 C44.1169922,27.0837891 43.0013672,28.1994141 43.0013672,29.5740234 L43.0013672,45.9896484 L5.01035156,45.9896484 L5.01035156,7.99863281 L21.0275391,7.99863281 C22.4021484,7.99863281 23.5177734,6.88300781 23.5177734,5.50839844 C23.5177734,4.13378906 22.4021484,3.01816406 21.0275391,3.01816406 L4.09394531,3.01816406 C1.85273437,3.01816406 0.0298828125,4.73144531 0.0298828125,6.84316406 L0.0298828125,46.9160156 C0.0298828125,49.0775391 1.93242187,50.9800781 4.09394531,50.9800781 L44.1667969,50.9800781 C46.3083984,50.9800781 47.9818359,49.1970703 47.9818359,46.9160156 L47.9818359,29.5839844 C47.9818359,28.1994141 46.8761719,27.0837891 45.4916016,27.0837891 Z" id="Shape"></path>
            </g>
        </g>
    </g>
</svg>