<?xml version="1.0" ?><svg viewBox="0 0 512 512" xmlns="http://www.w3.org/2000/svg"><defs><style>.cls-1{fill:#76b9e2;}.cls-2{fill:#4ca1e0;}.cls-3{fill:#fff;}</style></defs><title/><g data-name="1 milk" id="_1_milk"><rect class="cls-1" height="38.95" width="98.98" x="207.51" y="39.96"/><polygon class="cls-2" points="217.24 164.33 395.74 164.33 306.49 78.91 217.24 164.33"/><polygon class="cls-1" points="118.26 164.33 217.24 164.33 306.49 78.91 207.51 78.91 118.26 164.33"/><rect class="cls-1" height="305.16" width="98.98" x="118.26" y="164.33"/><rect class="cls-2" height="305.16" width="178.5" x="217.24" y="164.33"/><rect class="cls-3" height="118.49" transform="translate(612.98 548.41) rotate(-180)" width="106.49" x="253.24" y="214.96"/><path d="M395.74,256a7.5,7.5,0,0,0,7.5-7.5V164.34a7.5,7.5,0,0,0-2.31-5.42L314,75.71V40a7.5,7.5,0,0,0-7.5-7.5h-99A7.5,7.5,0,0,0,200,40V75.71l-86.94,83.21a7.5,7.5,0,0,0-2.31,5.42V469.5a7.5,7.5,0,0,0,7.5,7.5H395.74a7.5,7.5,0,0,0,7.5-7.5v-196a7.5,7.5,0,0,0-15,0V462H224.74V171.84h163.5v76.62A7.5,7.5,0,0,0,395.74,256Zm-18.68-99.12H235.92l70.57-67.54ZM215,47.47h84V71.41H215ZM209.74,462h-84V171.84h21a7.5,7.5,0,0,0,0-15h-9.82l73.58-70.43h77.29l-73.58,70.43H171.76a7.5,7.5,0,0,0,0,15h38Z"/><path d="M367.24,215a7.5,7.5,0,0,0-7.5-7.5H253.24a7.5,7.5,0,0,0-7.5,7.5V333.45a7.5,7.5,0,0,0,7.5,7.5H359.74a7.5,7.5,0,0,0,7.5-7.5Zm-15,111H260.74V222.46h91.49Z"/><path d="M359.74,355.76H299.25a7.5,7.5,0,0,0,0,15h60.48a7.5,7.5,0,0,0,0-15Z"/><path d="M253.24,370.76h21a7.5,7.5,0,0,0,0-15h-21a7.5,7.5,0,1,0,0,15Z"/><path d="M359.74,385.56H338.25a7.5,7.5,0,1,0,0,15h21.48a7.5,7.5,0,0,0,0-15Z"/><path d="M253.24,400.56h60a7.5,7.5,0,0,0,0-15h-60a7.5,7.5,0,0,0,0,15Z"/></g></svg>