<?xml version="1.0" ?><svg data-name="Layer 1" id="Layer_1" viewBox="0 0 128 128" xmlns="http://www.w3.org/2000/svg"><defs><style>.cls-1{fill:#dfe6e8;}.cls-2{fill:none;stroke:#c8d3d6;stroke-linecap:round;stroke-linejoin:round;stroke-width:4px;}.cls-3{fill:#f0f5f7;}.cls-4{fill:#fff;}</style></defs><title/><path class="cls-1" d="M102.64,35A10.41,10.41,0,0,0,105,28H23a10.32,10.32,0,0,0,2.17,7Z"/><path class="cls-2" d="M102.64,36A10.41,10.41,0,0,0,105,29H23a10.32,10.32,0,0,0,2.17,7"/><path class="cls-3" d="M126,22H2c0,4,21,6,21,6h82S126,27,126,22Z"/><path class="cls-4" d="M21,22H2c0,4,21,6,21,6H42S21,26,21,22Z"/><path class="cls-2" d="M126,22H2c0,4,21,6,21,6h82S126,27,126,22Z"/><path class="cls-1" d="M102.64,49A10.41,10.41,0,0,0,105,42H23a10.32,10.32,0,0,0,2.17,7Z"/><path class="cls-2" d="M102.64,50A10.41,10.41,0,0,0,105,43H23a10.32,10.32,0,0,0,2.17,7"/><path class="cls-3" d="M126,36H2c0,4,21,6,21,6h82S126,41,126,36Z"/><path class="cls-4" d="M21,36H2c0,4,21,6,21,6H42S21,40,21,36Z"/><path class="cls-2" d="M126,36H2c0,4,21,6,21,6h82S126,41,126,36Z"/><path class="cls-1" d="M102.64,63A10.41,10.41,0,0,0,105,56H23a10.32,10.32,0,0,0,2.17,7Z"/><path class="cls-2" d="M102.64,64A10.41,10.41,0,0,0,105,57H23a10.32,10.32,0,0,0,2.17,7"/><path class="cls-3" d="M126,50H2c0,4,21,6,21,6h82S126,55,126,50Z"/><path class="cls-4" d="M21,50H2c0,4,21,6,21,6H42S21,54,21,50Z"/><path class="cls-2" d="M126,50H2c0,4,21,6,21,6h82S126,55,126,50Z"/><path class="cls-1" d="M102.64,77A10.41,10.41,0,0,0,105,70H23a10.32,10.32,0,0,0,2.17,7Z"/><path class="cls-2" d="M102.64,78A10.41,10.41,0,0,0,105,71H23a10.32,10.32,0,0,0,2.17,7"/><path class="cls-3" d="M126,64H2c0,4,21,6,21,6h82S126,69,126,64Z"/><path class="cls-4" d="M21,64H2c0,4,21,6,21,6H42S21,68,21,64Z"/><path class="cls-2" d="M126,64H2c0,4,21,6,21,6h82S126,69,126,64Z"/><path class="cls-1" d="M84,107H44a4,4,0,0,1-4-4v-2H88v2A4,4,0,0,1,84,107Z"/><path class="cls-3" d="M105,85c0,13.17-17,11-17,16H40c0-5-17.29-2.63-17-16"/><path class="cls-4" d="M37,85H23c-.29,13.37,17,11,17,16H54C54,96,36.71,98.37,37,85Z"/><path class="cls-1" d="M103.39,91A10.8,10.8,0,0,0,105,85H23a10.77,10.77,0,0,0,1.45,6Z"/><path class="cls-2" d="M105,85c0,13.17-17,11-17,16H40c0-5-17.29-2.63-17-16"/><path class="cls-3" d="M126,78H2c0,4,21,6,21,6h82S126,83,126,78Z"/><path class="cls-4" d="M21,78H2c0,4,21,6,21,6H42S21,82,21,78Z"/><path class="cls-2" d="M126,78H2c0,4,21,6,21,6h82S126,83,126,78Z"/></svg>