<?xml version="1.0" ?><svg viewBox="0 0 512 512" xmlns="http://www.w3.org/2000/svg"><defs><style>.cls-1{fill:#f94848;}.cls-2{fill:#e895b1;}.cls-3{fill:#efb6cb;}.cls-4{fill:#fff5cc;}.cls-5{fill:#fcf8e8;}</style></defs><title/><g data-name="50 milk shake" id="_50_milk_shake"><path class="cls-1" d="M209.26,107.76A26.4,26.4,0,1,1,248,84.4a25.82,25.82,0,0,1-.74,6.17"/><rect class="cls-2" height="116.5" width="226.78" x="137.68" y="117.26"/><rect class="cls-3" height="116.5" width="34.46" x="137.68" y="117.26"/><path class="cls-4" d="M158,117.26a149.1,149.1,0,0,1,186.16,0"/><rect class="cls-4" height="74.56" width="226.78" x="137.68" y="117.26"/><rect class="cls-5" height="74.56" width="34.46" x="137.68" y="117.26"/><polyline class="cls-2" points="353.2 233.76 332.67 472.97 169.47 472.97 148.93 233.76"/><polygon class="cls-3" points="201.61 472.97 169.46 472.97 148.93 233.76 194.16 233.76 201.61 472.97"/><path class="cls-1" d="M171.32,107.76A26.4,26.4,0,1,1,210.06,84.4a25.82,25.82,0,0,1-.74,6.17"/><path d="M393,60.79,327.8,29.72a7.5,7.5,0,0,0-10.08,3.74L295.53,83.62a156.7,156.7,0,0,0-40.81-6.43A34,34,0,0,0,221.59,50.5a33.56,33.56,0,0,0-19,5.79,33.88,33.88,0,0,0-34.15-2.19A66.91,66.91,0,0,0,124.18,38a7.5,7.5,0,0,0,0,15,52.26,52.26,0,0,1,32.56,10.82,33.88,33.88,0,0,0,1.91,43.51q-1.64,1.2-3.25,2.44H137.68a7.5,7.5,0,0,0-7.5,7.5v116.5a7.5,7.5,0,0,0,7.5,7.5H142L162,473.61a7.5,7.5,0,0,0,7.47,6.86h163.2a7.5,7.5,0,0,0,7.47-6.86l19.95-232.35h4.37a7.5,7.5,0,0,0,7.5-7.5V171a7.5,7.5,0,0,0-15,0v13.34H208.17a7.5,7.5,0,0,0,0,15H357v26.94H145.18V199.32h38a7.5,7.5,0,0,0,0-15h-38V124.76H357V146a7.5,7.5,0,1,0,15,0V117.26a7.5,7.5,0,0,0-7.5-7.5H346.74a156.19,156.19,0,0,0-37-21.19l18.58-42,58.27,27.75A7.5,7.5,0,0,0,393,60.79ZM197.23,355.57a7.5,7.5,0,1,0-15,.86l6.26,109H176.35L157.11,241.26h18.54l5,86.42a7.5,7.5,0,0,0,7.48,7.07h.44a7.5,7.5,0,0,0,7.06-7.92l-4.92-85.56h29.75l4.39,224.21H203.55Zm128.55,109.9H313.62l8.25-143.58a7.5,7.5,0,1,0-15-.86l-8.3,144.44H277.33l.73-37.36a7.5,7.5,0,0,0-15-.29l-.74,37.66H239.81l-4.39-224.21h31.3l-3.1,158a7.5,7.5,0,0,0,7.35,7.65h.15a7.5,7.5,0,0,0,7.5-7.35l3.1-158.33h29.75l-2.78,48.38a7.5,7.5,0,0,0,7.06,7.92h.44a7.5,7.5,0,0,0,7.48-7.07l2.83-49.24H345ZM182.54,109.76a140.06,140.06,0,0,1,68.53-17.62,142.22,142.22,0,0,1,38.38,5.21L284,109.76ZM239.21,77.6a156.73,156.73,0,0,0-21.83,3.23,33.61,33.61,0,0,0-4.3-13.31A18.86,18.86,0,0,1,239.21,77.6Zm-74.46,6.8a18.91,18.91,0,0,1,37.82,0c0,.16,0,.32,0,.47a157.19,157.19,0,0,0-31.06,14A18.86,18.86,0,0,1,164.75,84.4ZM319.6,109.76H300.37l3.35-7.57A139.41,139.41,0,0,1,319.6,109.76Z"/></g></svg>